<mxfile host="app.diagrams.net" modified="2020-07-23T23:44:10.543Z" agent="5.0 (Windows NT 10.0; Win64; x64) AppleWebKit/537.36 (KHTML, like Gecko) Chrome/84.0.4147.89 Safari/537.36" etag="AUXXMqqOigz98nKt1boR" version="13.5.1" type="github">
  <diagram id="gsV8GUzg9SOAlhobHJ_y" name="Page-1">
    <mxGraphModel dx="868" dy="450" grid="1" gridSize="10" guides="1" tooltips="1" connect="1" arrows="1" fold="1" page="1" pageScale="1" pageWidth="850" pageHeight="1100" math="0" shadow="0">
      <root>
        <mxCell id="0" />
        <mxCell id="1" parent="0" />
        <mxCell id="jfPYH1TMYMiqqHDWli_H-1" value="Actor" style="shape=umlActor;verticalLabelPosition=bottom;verticalAlign=top;html=1;outlineConnect=0;" vertex="1" parent="1">
          <mxGeometry x="60" y="40" width="30" height="60" as="geometry" />
        </mxCell>
        <mxCell id="jfPYH1TMYMiqqHDWli_H-2" value="Punch In" style="ellipse;whiteSpace=wrap;html=1;" vertex="1" parent="1">
          <mxGeometry x="160" y="20" width="170" height="80" as="geometry" />
        </mxCell>
        <mxCell id="jfPYH1TMYMiqqHDWli_H-3" value="" style="endArrow=none;html=1;" edge="1" parent="1">
          <mxGeometry width="50" height="50" relative="1" as="geometry">
            <mxPoint x="100" y="90" as="sourcePoint" />
            <mxPoint x="160" y="60" as="targetPoint" />
          </mxGeometry>
        </mxCell>
        <mxCell id="jfPYH1TMYMiqqHDWli_H-4" value="Employee" style="text;html=1;align=center;verticalAlign=middle;resizable=0;points=[];autosize=1;" vertex="1" parent="1">
          <mxGeometry x="45" y="120" width="70" height="20" as="geometry" />
        </mxCell>
        <mxCell id="jfPYH1TMYMiqqHDWli_H-5" value="Actor" style="shape=umlActor;verticalLabelPosition=bottom;verticalAlign=top;html=1;outlineConnect=0;" vertex="1" parent="1">
          <mxGeometry x="60" y="180" width="30" height="60" as="geometry" />
        </mxCell>
        <mxCell id="jfPYH1TMYMiqqHDWli_H-8" value="Non-employee" style="text;html=1;align=center;verticalAlign=middle;resizable=0;points=[];autosize=1;" vertex="1" parent="1">
          <mxGeometry x="25" y="260" width="90" height="20" as="geometry" />
        </mxCell>
        <mxCell id="jfPYH1TMYMiqqHDWli_H-9" value="Become an employee" style="ellipse;whiteSpace=wrap;html=1;" vertex="1" parent="1">
          <mxGeometry x="160" y="160" width="170" height="80" as="geometry" />
        </mxCell>
        <mxCell id="jfPYH1TMYMiqqHDWli_H-10" value="" style="endArrow=none;html=1;entryX=0;entryY=0.5;entryDx=0;entryDy=0;" edge="1" parent="1" target="jfPYH1TMYMiqqHDWli_H-9">
          <mxGeometry width="50" height="50" relative="1" as="geometry">
            <mxPoint x="100" y="230" as="sourcePoint" />
            <mxPoint x="150" y="200" as="targetPoint" />
            <Array as="points" />
          </mxGeometry>
        </mxCell>
        <mxCell id="jfPYH1TMYMiqqHDWli_H-12" value="Actor" style="shape=umlActor;verticalLabelPosition=bottom;verticalAlign=top;html=1;outlineConnect=0;" vertex="1" parent="1">
          <mxGeometry x="55" y="320" width="30" height="60" as="geometry" />
        </mxCell>
        <mxCell id="jfPYH1TMYMiqqHDWli_H-13" value="Employee" style="text;html=1;align=center;verticalAlign=middle;resizable=0;points=[];autosize=1;" vertex="1" parent="1">
          <mxGeometry x="35" y="400" width="70" height="20" as="geometry" />
        </mxCell>
        <mxCell id="jfPYH1TMYMiqqHDWli_H-14" value="Track time" style="ellipse;whiteSpace=wrap;html=1;" vertex="1" parent="1">
          <mxGeometry x="160" y="290" width="170" height="80" as="geometry" />
        </mxCell>
        <mxCell id="jfPYH1TMYMiqqHDWli_H-15" value="" style="endArrow=none;html=1;" edge="1" parent="1">
          <mxGeometry width="50" height="50" relative="1" as="geometry">
            <mxPoint x="90" y="370" as="sourcePoint" />
            <mxPoint x="160" y="325" as="targetPoint" />
          </mxGeometry>
        </mxCell>
        <mxCell id="jfPYH1TMYMiqqHDWli_H-16" value="Actor" style="shape=umlActor;verticalLabelPosition=bottom;verticalAlign=top;html=1;outlineConnect=0;" vertex="1" parent="1">
          <mxGeometry x="55" y="470" width="30" height="60" as="geometry" />
        </mxCell>
        <mxCell id="jfPYH1TMYMiqqHDWli_H-17" value="Employee" style="text;html=1;align=center;verticalAlign=middle;resizable=0;points=[];autosize=1;" vertex="1" parent="1">
          <mxGeometry x="35" y="550" width="70" height="20" as="geometry" />
        </mxCell>
        <mxCell id="jfPYH1TMYMiqqHDWli_H-18" value="Punch out" style="ellipse;whiteSpace=wrap;html=1;" vertex="1" parent="1">
          <mxGeometry x="160" y="460" width="170" height="80" as="geometry" />
        </mxCell>
        <mxCell id="jfPYH1TMYMiqqHDWli_H-20" value="" style="endArrow=none;html=1;" edge="1" parent="1">
          <mxGeometry width="50" height="50" relative="1" as="geometry">
            <mxPoint x="90" y="520" as="sourcePoint" />
            <mxPoint x="160" y="500" as="targetPoint" />
          </mxGeometry>
        </mxCell>
        <mxCell id="jfPYH1TMYMiqqHDWli_H-21" value="Actor" style="shape=umlActor;verticalLabelPosition=bottom;verticalAlign=top;html=1;outlineConnect=0;" vertex="1" parent="1">
          <mxGeometry x="55" y="620" width="30" height="60" as="geometry" />
        </mxCell>
        <mxCell id="jfPYH1TMYMiqqHDWli_H-22" value="Track date" style="ellipse;whiteSpace=wrap;html=1;" vertex="1" parent="1">
          <mxGeometry x="160" y="610" width="170" height="80" as="geometry" />
        </mxCell>
        <mxCell id="jfPYH1TMYMiqqHDWli_H-23" value="" style="endArrow=none;html=1;" edge="1" parent="1">
          <mxGeometry width="50" height="50" relative="1" as="geometry">
            <mxPoint x="90" y="670" as="sourcePoint" />
            <mxPoint x="160" y="650" as="targetPoint" />
          </mxGeometry>
        </mxCell>
        <mxCell id="jfPYH1TMYMiqqHDWli_H-24" value="Employee" style="text;html=1;align=center;verticalAlign=middle;resizable=0;points=[];autosize=1;" vertex="1" parent="1">
          <mxGeometry x="40" y="700" width="70" height="20" as="geometry" />
        </mxCell>
        <mxCell id="jfPYH1TMYMiqqHDWli_H-25" value="Actor" style="shape=umlActor;verticalLabelPosition=bottom;verticalAlign=top;html=1;outlineConnect=0;" vertex="1" parent="1">
          <mxGeometry x="55" y="780" width="30" height="60" as="geometry" />
        </mxCell>
        <mxCell id="jfPYH1TMYMiqqHDWli_H-26" value="Store Employee Name/Id" style="ellipse;whiteSpace=wrap;html=1;" vertex="1" parent="1">
          <mxGeometry x="160" y="770" width="170" height="80" as="geometry" />
        </mxCell>
        <mxCell id="jfPYH1TMYMiqqHDWli_H-27" value="" style="endArrow=none;html=1;" edge="1" parent="1">
          <mxGeometry width="50" height="50" relative="1" as="geometry">
            <mxPoint x="90" y="830" as="sourcePoint" />
            <mxPoint x="160" y="810" as="targetPoint" />
          </mxGeometry>
        </mxCell>
        <mxCell id="jfPYH1TMYMiqqHDWli_H-28" value="Employee" style="text;html=1;align=center;verticalAlign=middle;resizable=0;points=[];autosize=1;" vertex="1" parent="1">
          <mxGeometry x="40" y="860" width="70" height="20" as="geometry" />
        </mxCell>
        <mxCell id="jfPYH1TMYMiqqHDWli_H-29" value="Actor" style="shape=umlActor;verticalLabelPosition=bottom;verticalAlign=top;html=1;outlineConnect=0;" vertex="1" parent="1">
          <mxGeometry x="55" y="920" width="30" height="60" as="geometry" />
        </mxCell>
        <mxCell id="jfPYH1TMYMiqqHDWli_H-30" value="Punch out for 30 minute break" style="ellipse;whiteSpace=wrap;html=1;" vertex="1" parent="1">
          <mxGeometry x="160" y="910" width="170" height="80" as="geometry" />
        </mxCell>
        <mxCell id="jfPYH1TMYMiqqHDWli_H-31" value="" style="endArrow=none;html=1;" edge="1" parent="1">
          <mxGeometry width="50" height="50" relative="1" as="geometry">
            <mxPoint x="90" y="970" as="sourcePoint" />
            <mxPoint x="160" y="950" as="targetPoint" />
          </mxGeometry>
        </mxCell>
        <mxCell id="jfPYH1TMYMiqqHDWli_H-32" value="Employee" style="text;html=1;align=center;verticalAlign=middle;resizable=0;points=[];autosize=1;" vertex="1" parent="1">
          <mxGeometry x="40" y="1000" width="70" height="20" as="geometry" />
        </mxCell>
        <mxCell id="jfPYH1TMYMiqqHDWli_H-33" value="Actor" style="shape=umlActor;verticalLabelPosition=bottom;verticalAlign=top;html=1;outlineConnect=0;" vertex="1" parent="1">
          <mxGeometry x="55" y="1050" width="30" height="60" as="geometry" />
        </mxCell>
        <mxCell id="jfPYH1TMYMiqqHDWli_H-34" value="Punch in from 30 minute break" style="ellipse;whiteSpace=wrap;html=1;" vertex="1" parent="1">
          <mxGeometry x="160" y="1040" width="170" height="80" as="geometry" />
        </mxCell>
        <mxCell id="jfPYH1TMYMiqqHDWli_H-35" value="" style="endArrow=none;html=1;" edge="1" parent="1">
          <mxGeometry width="50" height="50" relative="1" as="geometry">
            <mxPoint x="90" y="1100" as="sourcePoint" />
            <mxPoint x="160" y="1080" as="targetPoint" />
          </mxGeometry>
        </mxCell>
      </root>
    </mxGraphModel>
  </diagram>
</mxfile>
